<svg xmlns="http://www.w3.org/2000/svg" version="1.1" xmlns:xlink="http://www.w3.org/1999/xlink" xmlns:svgjs="http://svgjs.dev/svgjs" viewBox="0 0 800 800"><defs><linearGradient x1="50%" y1="0%" x2="50%" y2="100%" id="ffflurry-grad" gradientTransform="rotate(270)"><stop stop-color="hsl(0, 0%, 97%)" stop-opacity="1" offset="0%"></stop><stop stop-color="hsl(162, 100%, 58%)" stop-opacity="1" offset="45%"></stop><stop stop-color="hsl(270, 73%, 53%)" stop-opacity="1" offset="100%"></stop></linearGradient></defs><rect width="100%" height="100%" fill="#fff"></rect><g fill="url(#ffflurry-grad)"><rect width="125" height="2" x="5.5" y="307" rx="1" transform="rotate(57, 68, 308)" opacity="0.34"></rect><rect width="134" height="2" x="189" y="86" rx="1" transform="rotate(57, 256, 87)" opacity="0.83"></rect><rect width="125" height="2" x="387.5" y="551" rx="1" transform="rotate(57, 450, 552)" opacity="0.70"></rect><rect width="62" height="2" x="716" y="314" rx="1" transform="rotate(57, 747, 315)" opacity="0.68"></rect><rect width="55" height="2" x="722.5" y="751" rx="1" transform="rotate(57, 750, 752)" opacity="0.75"></rect><rect width="413" height="2" x="113.5" y="757" rx="1" transform="rotate(57, 320, 758)" opacity="0.25"></rect><rect width="117" height="2" x="616.5" y="572" rx="1" transform="rotate(57, 675, 573)" opacity="0.89"></rect><rect width="105" height="2" x="521.5" y="292" rx="1" transform="rotate(57, 574, 293)" opacity="0.95"></rect><rect width="507" height="2" x="261.5" y="379" rx="1" transform="rotate(57, 515, 380)" opacity="0.87"></rect><rect width="66" height="2" x="176" y="101" rx="1" transform="rotate(57, 209, 102)" opacity="0.63"></rect><rect width="205" height="2" x="-57.5" y="204" rx="1" transform="rotate(57, 45, 205)" opacity="0.28"></rect><rect width="210" height="2" x="74" y="699" rx="1" transform="rotate(57, 179, 700)" opacity="0.35"></rect><rect width="436" height="2" x="187" y="331" rx="1" transform="rotate(57, 405, 332)" opacity="0.28"></rect><rect width="324" height="2" x="464" y="399" rx="1" transform="rotate(57, 626, 400)" opacity="0.69"></rect><rect width="41" height="2" x="274.5" y="688" rx="1" transform="rotate(57, 295, 689)" opacity="0.90"></rect><rect width="220" height="2" x="405" y="451" rx="1" transform="rotate(57, 515, 452)" opacity="0.99"></rect><rect width="209" height="2" x="147.5" y="597" rx="1" transform="rotate(57, 252, 598)" opacity="0.09"></rect><rect width="508" height="2" x="-28" y="234" rx="1" transform="rotate(57, 226, 235)" opacity="0.92"></rect><rect width="154" height="2" x="364" y="47" rx="1" transform="rotate(57, 441, 48)" opacity="0.77"></rect><rect width="494" height="2" x="-203" y="132" rx="1" transform="rotate(57, 44, 133)" opacity="0.24"></rect><rect width="279" height="2" x="-33.5" y="265" rx="1" transform="rotate(57, 106, 266)" opacity="0.89"></rect><rect width="249" height="2" x="501.5" y="756" rx="1" transform="rotate(57, 626, 757)" opacity="0.16"></rect><rect width="355" height="2" x="577.5" y="248" rx="1" transform="rotate(57, 755, 249)" opacity="0.63"></rect><rect width="293" height="2" x="-110.5" y="457" rx="1" transform="rotate(57, 36, 458)" opacity="0.42"></rect><rect width="301" height="2" x="57.5" y="41" rx="1" transform="rotate(57, 208, 42)" opacity="0.65"></rect><rect width="444" height="2" x="-51" y="539" rx="1" transform="rotate(57, 171, 540)" opacity="0.10"></rect><rect width="372" height="2" x="423" y="345" rx="1" transform="rotate(57, 609, 346)" opacity="0.82"></rect><rect width="357" height="2" x="18.5" y="589" rx="1" transform="rotate(57, 197, 590)" opacity="0.10"></rect><rect width="126" height="2" x="2" y="739" rx="1" transform="rotate(57, 65, 740)" opacity="0.29"></rect><rect width="241" height="2" x="330.5" y="265" rx="1" transform="rotate(57, 451, 266)" opacity="0.77"></rect><rect width="61" height="2" x="174.5" y="412" rx="1" transform="rotate(57, 205, 413)" opacity="0.37"></rect><rect width="489" height="2" x="515.5" y="558" rx="1" transform="rotate(57, 760, 559)" opacity="0.39"></rect><rect width="59" height="2" x="76.5" y="694" rx="1" transform="rotate(57, 106, 695)" opacity="0.72"></rect><rect width="377" height="2" x="-37.5" y="641" rx="1" transform="rotate(57, 151, 642)" opacity="0.76"></rect><rect width="353" height="2" x="134.5" y="500" rx="1" transform="rotate(57, 311, 501)" opacity="0.12"></rect><rect width="261" height="2" x="285.5" y="748" rx="1" transform="rotate(57, 416, 749)" opacity="0.81"></rect><rect width="199" height="2" x="403.5" y="79" rx="1" transform="rotate(57, 503, 80)" opacity="0.58"></rect><rect width="339" height="2" x="602.5" y="469" rx="1" transform="rotate(57, 772, 470)" opacity="0.32"></rect><rect width="327" height="2" x="363.5" y="760" rx="1" transform="rotate(57, 527, 761)" opacity="0.07"></rect><rect width="413" height="2" x="190.5" y="591" rx="1" transform="rotate(57, 397, 592)" opacity="0.78"></rect><rect width="627" height="2" x="349.5" y="272" rx="1" transform="rotate(57, 663, 273)" opacity="0.45"></rect><rect width="166" height="2" x="106" y="299" rx="1" transform="rotate(57, 189, 300)" opacity="0.69"></rect><rect width="228" height="2" x="297" y="478" rx="1" transform="rotate(57, 411, 479)" opacity="0.78"></rect><rect width="403" height="2" x="-67.5" y="344" rx="1" transform="rotate(57, 134, 345)" opacity="0.29"></rect><rect width="279" height="2" x="0.5" y="158" rx="1" transform="rotate(57, 140, 159)" opacity="0.64"></rect><rect width="265" height="2" x="295.5" y="142" rx="1" transform="rotate(57, 428, 143)" opacity="0.41"></rect><rect width="95" height="2" x="310.5" y="116" rx="1" transform="rotate(57, 358, 117)" opacity="0.55"></rect><rect width="473" height="2" x="424.5" y="98" rx="1" transform="rotate(57, 661, 99)" opacity="0.59"></rect><rect width="199" height="2" x="599.5" y="179" rx="1" transform="rotate(57, 699, 180)" opacity="0.41"></rect><rect width="372" height="2" x="389" y="114" rx="1" transform="rotate(57, 575, 115)" opacity="0.77"></rect><rect width="444" height="2" x="308" y="224" rx="1" transform="rotate(57, 530, 225)" opacity="0.75"></rect><rect width="175" height="2" x="212.5" y="95" rx="1" transform="rotate(57, 300, 96)" opacity="0.39"></rect><rect width="123" height="2" x="254.5" y="294" rx="1" transform="rotate(57, 316, 295)" opacity="0.47"></rect><rect width="381" height="2" x="-140.5" y="44" rx="1" transform="rotate(57, 50, 45)" opacity="0.21"></rect><rect width="440" height="2" x="51" y="350" rx="1" transform="rotate(57, 271, 351)" opacity="0.78"></rect><rect width="325" height="2" x="436.5" y="443" rx="1" transform="rotate(57, 599, 444)" opacity="0.22"></rect><rect width="316" height="2" x="50" y="646" rx="1" transform="rotate(57, 208, 647)" opacity="0.51"></rect><rect width="232" height="2" x="27" y="37" rx="1" transform="rotate(57, 143, 38)" opacity="0.66"></rect><rect width="60" height="2" x="260" y="189" rx="1" transform="rotate(57, 290, 190)" opacity="0.96"></rect><rect width="200" height="2" x="271" y="664" rx="1" transform="rotate(57, 371, 665)" opacity="0.33"></rect><rect width="110" height="2" x="512" y="598" rx="1" transform="rotate(57, 567, 599)" opacity="0.48"></rect><rect width="342" height="2" x="-66" y="202" rx="1" transform="rotate(57, 105, 203)" opacity="0.25"></rect><rect width="46" height="2" x="725" y="645" rx="1" transform="rotate(57, 748, 646)" opacity="0.77"></rect><rect width="267" height="2" x="493.5" y="521" rx="1" transform="rotate(57, 627, 522)" opacity="0.09"></rect><rect width="47" height="2" x="88.5" y="610" rx="1" transform="rotate(57, 112, 611)" opacity="0.40"></rect><rect width="223" height="2" x="311.5" y="409" rx="1" transform="rotate(57, 423, 410)" opacity="0.25"></rect><rect width="145" height="2" x="531.5" y="196" rx="1" transform="rotate(57, 604, 197)" opacity="0.82"></rect><rect width="237" height="2" x="131.5" y="663" rx="1" transform="rotate(57, 250, 664)" opacity="0.48"></rect><rect width="154" height="2" x="495" y="509" rx="1" transform="rotate(57, 572, 510)" opacity="0.37"></rect><rect width="361" height="2" x="276.5" y="633" rx="1" transform="rotate(57, 457, 634)" opacity="0.93"></rect><rect width="250" height="2" x="114" y="536" rx="1" transform="rotate(57, 239, 537)" opacity="0.21"></rect><rect width="418" height="2" x="32" y="749" rx="1" transform="rotate(57, 241, 750)" opacity="0.26"></rect><rect width="33" height="2" x="356.5" y="528" rx="1" transform="rotate(57, 373, 529)" opacity="0.11"></rect><rect width="209" height="2" x="502.5" y="653" rx="1" transform="rotate(57, 607, 654)" opacity="0.68"></rect><rect width="93" height="2" x="272.5" y="573" rx="1" transform="rotate(57, 319, 574)" opacity="0.40"></rect><rect width="80" height="2" x="13" y="778" rx="1" transform="rotate(57, 53, 779)" opacity="0.31"></rect><rect width="237" height="2" x="45.5" y="767" rx="1" transform="rotate(57, 164, 768)" opacity="0.98"></rect><rect width="172" height="2" x="72" y="218" rx="1" transform="rotate(57, 158, 219)" opacity="0.22"></rect><rect width="43" height="2" x="491.5" y="575" rx="1" transform="rotate(57, 513, 576)" opacity="0.40"></rect><rect width="160" height="2" x="176" y="22" rx="1" transform="rotate(57, 256, 23)" opacity="0.89"></rect><rect width="424" height="2" x="-178" y="533" rx="1" transform="rotate(57, 34, 534)" opacity="0.39"></rect><rect width="385" height="2" x="549.5" y="52" rx="1" transform="rotate(57, 742, 53)" opacity="0.89"></rect><rect width="402" height="2" x="501" y="473" rx="1" transform="rotate(57, 702, 474)" opacity="0.48"></rect><rect width="139" height="2" x="-46.5" y="267" rx="1" transform="rotate(57, 23, 268)" opacity="0.94"></rect><rect width="295" height="2" x="-75.5" y="578" rx="1" transform="rotate(57, 72, 579)" opacity="0.15"></rect><rect width="73" height="2" x="338.5" y="41" rx="1" transform="rotate(57, 375, 42)" opacity="0.78"></rect><rect width="293" height="2" x="-27.5" y="470" rx="1" transform="rotate(57, 119, 471)" opacity="0.45"></rect><rect width="51" height="2" x="91.5" y="405" rx="1" transform="rotate(57, 117, 406)" opacity="0.61"></rect><rect width="389" height="2" x="43.5" y="475" rx="1" transform="rotate(57, 238, 476)" opacity="0.84"></rect><rect width="192" height="2" x="230" y="420" rx="1" transform="rotate(57, 326, 421)" opacity="0.69"></rect><rect width="284" height="2" x="384" y="520" rx="1" transform="rotate(57, 526, 521)" opacity="0.50"></rect><rect width="65" height="2" x="738.5" y="163" rx="1" transform="rotate(57, 771, 164)" opacity="0.49"></rect><rect width="186" height="2" x="-65" y="695" rx="1" transform="rotate(57, 28, 696)" opacity="0.97"></rect><rect width="111" height="2" x="263.5" y="26" rx="1" transform="rotate(57, 319, 27)" opacity="0.62"></rect><rect width="207" height="2" x="485.5" y="28" rx="1" transform="rotate(57, 589, 29)" opacity="0.77"></rect><rect width="182" height="2" x="-71" y="592" rx="1" transform="rotate(57, 20, 593)" opacity="0.26"></rect><rect width="59" height="2" x="456.5" y="169" rx="1" transform="rotate(57, 486, 170)" opacity="0.36"></rect><rect width="238" height="2" x="186" y="627" rx="1" transform="rotate(57, 305, 628)" opacity="0.41"></rect><rect width="262" height="2" x="225" y="246" rx="1" transform="rotate(57, 356, 247)" opacity="0.35"></rect><rect width="122" height="2" x="346" y="238" rx="1" transform="rotate(57, 407, 239)" opacity="0.38"></rect><rect width="441" height="2" x="270.5" y="309" rx="1" transform="rotate(57, 491, 310)" opacity="0.20"></rect><rect width="26" height="2" x="0" y="641" rx="1" transform="rotate(57, 13, 642)" opacity="0.22"></rect><rect width="377" height="2" x="-151.5" y="368" rx="1" transform="rotate(57, 37, 369)" opacity="0.36"></rect><rect width="451" height="2" x="282.5" y="686" rx="1" transform="rotate(57, 508, 687)" opacity="0.31"></rect><rect width="32" height="2" x="351" y="180" rx="1" transform="rotate(57, 367, 181)" opacity="0.67"></rect><rect width="214" height="2" x="571" y="694" rx="1" transform="rotate(57, 678, 695)" opacity="0.43"></rect><rect width="174" height="2" x="676" y="385" rx="1" transform="rotate(57, 763, 386)" opacity="0.34"></rect><rect width="376" height="2" x="-73" y="531" rx="1" transform="rotate(57, 115, 532)" opacity="0.92"></rect><rect width="307" height="2" x="64.5" y="155" rx="1" transform="rotate(57, 218, 156)" opacity="0.95"></rect><rect width="418" height="2" x="479" y="382" rx="1" transform="rotate(57, 688, 383)" opacity="0.56"></rect><rect width="41" height="2" x="34.5" y="638" rx="1" transform="rotate(57, 55, 639)" opacity="0.28"></rect><rect width="88" height="2" x="87" y="106" rx="1" transform="rotate(57, 131, 107)" opacity="0.11"></rect><rect width="164" height="2" x="396" y="503" rx="1" transform="rotate(57, 478, 504)" opacity="0.23"></rect><rect width="51" height="2" x="432.5" y="218" rx="1" transform="rotate(57, 458, 219)" opacity="0.07"></rect></g></svg>