<svg id="wave" style="transform:rotate(0deg); transition: 0.3s" viewBox="0 0 1440 390" version="1.1" xmlns="http://www.w3.org/2000/svg"><defs><linearGradient id="sw-gradient-0" x1="0" x2="0" y1="1" y2="0"><stop stop-color="rgba(0, 0, 0, 1)" offset="0%"></stop><stop stop-color="rgba(0, 0, 0, 1)" offset="100%"></stop></linearGradient></defs><path style="transform:translate(0, 0px); opacity:1" fill="#FFF" d="M0,312L1440,78L2880,0L4320,273L5760,156L7200,0L8640,312L10080,0L11520,273L12960,39L14400,78L15840,117L17280,273L18720,312L20160,0L21600,234L23040,39L24480,234L25920,0L27360,273L28800,39L30240,234L31680,0L33120,156L34560,78L34560,390L33120,390L31680,390L30240,390L28800,390L27360,390L25920,390L24480,390L23040,390L21600,390L20160,390L18720,390L17280,390L15840,390L14400,390L12960,390L11520,390L10080,390L8640,390L7200,390L5760,390L4320,390L2880,390L1440,390L0,390Z"></path></svg>